<?xml version="1.0" standalone="no"?>
<!DOCTYPE svg PUBLIC "-//W3C//DTD SVG 20010904//EN"
 "http://www.w3.org/TR/2001/REC-SVG-20010904/DTD/svg10.dtd">
<svg version="1.0" xmlns="http://www.w3.org/2000/svg"
 width="295.000000pt" height="301.000000pt" viewBox="0 0 295.000000 301.000000"
 preserveAspectRatio="xMidYMid meet">

<g transform="translate(0.000000,301.000000) scale(0.100000,-0.100000)"
fill="#000000" stroke="none">
<path d="M956 2605 c-29 -29 -26 -46 12 -66 15 -8 47 -34 72 -58 84 -82 140
-111 140 -74 0 8 4 12 9 9 15 -10 20 21 7 40 -13 17 -14 16 -25 -4 -13 -25
-31 -29 -31 -7 0 8 -7 15 -15 15 -9 0 -18 7 -21 15 -4 8 -12 15 -20 15 -8 0
-14 7 -14 15 0 9 -6 12 -15 9 -18 -7 -20 16 -2 36 6 8 2 6 -10 -3 -15 -13 -23
-15 -28 -7 -4 7 -2 17 4 23 20 20 12 31 -9 12 -24 -22 -39 -12 -22 15 27 44 7
54 -32 15z"/>
<path d="M1080 2529 c0 -5 5 -7 10 -4 6 3 10 8 10 11 0 2 -4 4 -10 4 -5 0 -10
-5 -10 -11z"/>
<path d="M1117 2513 c-4 -3 -7 -11 -7 -17 0 -6 5 -5 12 2 6 6 9 14 7 17 -3 3
-9 2 -12 -2z"/>
<path d="M1320 1598 c0 -12 3 -18 7 -14 11 10 12 36 2 36 -5 0 -9 -10 -9 -22z"/>
<path d="M1566 1613 c5 -5 12 -12 16 -18 4 -6 8 -2 8 8 0 9 -7 17 -17 17 -9 0
-12 -3 -7 -7z"/>
<path d="M1378 1543 c6 -2 18 -2 25 0 6 3 1 5 -13 5 -14 0 -19 -2 -12 -5z"/>
<path d="M1508 1543 c7 -3 16 -2 19 1 4 3 -2 6 -13 5 -11 0 -14 -3 -6 -6z"/>
<path d="M1287 1184 c-4 -4 -7 -33 -7 -65 l0 -58 58 -3 57 -3 3 -222 2 -223
65 0 65 0 2 223 3 222 58 3 58 3 -3 62 -3 62 -176 3 c-96 1 -178 -1 -182 -4z"/>
<path d="M1708 1184 c-5 -4 -8 -133 -8 -287 l0 -279 77 7 c42 4 112 15 157 24
l81 16 3 59 3 58 -43 -6 c-24 -3 -67 -9 -96 -12 l-53 -7 3 54 c3 46 6 54 23
56 11 1 46 5 78 8 l58 7 -3 56 -3 57 -75 0 -75 0 -3 32 -3 32 93 3 93 3 3 49
c2 27 0 52 -5 56 -11 11 -296 24 -305 14z"/>
<path d="M975 1168 c-35 -19 -66 -52 -88 -93 -18 -34 -22 -56 -21 -145 0 -90
3 -112 23 -150 52 -102 143 -154 230 -130 47 12 93 62 110 119 20 69 16 78
-35 85 -69 9 -74 8 -84 -19 -14 -37 -55 -53 -88 -34 -38 21 -52 55 -52 127 0
54 4 67 25 87 13 14 36 25 50 25 27 0 65 -31 65 -55 0 -16 51 -28 96 -23 27 3
29 6 28 40 -2 57 -43 129 -90 155 -43 25 -134 31 -169 11z"/>
</g>
</svg>
